<?xml version="1.0" encoding="UTF-8" standalone="no"?>
<svg xmlns:dc="http://purl.org/dc/elements/1.1/" xmlns:cc="http://creativecommons.org/ns#" xmlns:rdf="http://www.w3.org/1999/02/22-rdf-syntax-ns#" xmlns:svg="http://www.w3.org/2000/svg" xmlns="http://www.w3.org/2000/svg" viewBox="0 0 1365.3333 874.66669" height="874.66669" width="1365.3333" xml:space="preserve" id="svg2" version="1.1"><metadata id="metadata8"><rdf:RDF><cc:Work rdf:about=""><dc:format>image/svg+xml</dc:format><dc:type rdf:resource="http://purl.org/dc/dcmitype/StillImage"/></cc:Work></rdf:RDF></metadata><defs id="defs6"/><g transform="matrix(1.3333333,0,0,-1.3333333,0,874.66667)" id="g10"><g transform="scale(0.1)" id="g12"><path id="path14" style="fill:#ffffff;fill-opacity:1;fill-rule:nonzero;stroke:none" d="M 9600,0 H 640 C 286.539,0 0,286.539 0,640 v 5280 c 0,353.46 286.539,640 640,640 h 8960 c 353.46,0 640,-286.54 640,-640 V 640 C 10240,286.539 9953.46,0 9600,0"/><path id="path16" style="fill:#78c257;fill-opacity:1;fill-rule:nonzero;stroke:none" d="m 1626.59,3930.01 h -10 V 2603.62 c 0,-110.66 90.54,-201.21 201.22,-201.21 h 173.49 v -120.16 -342.13 0 c 0.04,-111.08 90.11,-201.13 201.21,-201.13 111.1,0 201.17,90.05 201.2,201.13 v 0 342.13 120.16 h 271.1 v -120.16 -342.13 0 c 0.06,-111.08 90.12,-201.13 201.22,-201.13 111.11,0 201.16,90.05 201.21,201.13 v 0 342.13 120.16 h 169.09 c 110.66,0 201.2,90.55 201.2,201.21 v 1326.39 h -3.27 z m 400.81,477.87 c 0,-47.23 38.28,-85.52 85.5,-85.52 47.23,0 85.53,38.29 85.53,85.52 0,47.23 -38.3,85.51 -85.53,85.51 -47.22,0 -85.5,-38.28 -85.5,-85.51 z m 828.31,0 c 0,-47.23 38.3,-85.52 85.52,-85.52 47.21,0 85.51,38.29 85.51,85.52 0,47.23 -38.3,85.51 -85.51,85.51 -47.22,0 -85.52,-38.28 -85.52,-85.51 z M 1618.86,4000.43 c -0.35,9.16 -0.58,18.35 -0.58,27.59 0,61.68 7.77,121.74 22.42,179.47 56.48,222.5 215.72,410.27 430.97,521.76 l -139.64,257.6 c -8.62,15.88 -2.72,35.73 13.16,44.33 15.87,8.62 35.72,2.71 44.32,-13.16 l 141.29,-260.65 c 120.21,52.11 255.25,81.36 397.93,81.36 141.65,0 275.69,-28.84 395.22,-80.22 l 140.66,259.51 c 8.62,15.87 28.45,21.78 44.34,13.16 15.87,-8.6 21.76,-28.45 13.16,-44.33 l -138.92,-256.24 c 225.82,-116.06 390.43,-315.93 440.25,-551.88 5.64,-26.67 9.79,-53.79 12.42,-81.31 v -96.99 z m 2292.11,-236.42 c -0.04,111.09 -90.11,201.13 -201.21,201.13 -111.1,0 -201.17,-90.04 -201.2,-201.13 v 0 -342.13 -160.89 -342.13 0 c 0.03,-111.09 90.1,-201.14 201.2,-201.14 111.1,0 201.17,90.05 201.21,201.14 v 0 342.13 160.89 342.13 z m -2366.46,0 v 0 -845.15 c -0.06,-111.09 -90.13,-201.14 -201.23,-201.14 -111.1,0 -201.15,90.05 -201.2,201.14 v 0 342.13 160.89 342.13 0 c 0.05,111.09 90.1,201.13 201.2,201.13 111.1,0 201.17,-90.04 201.23,-201.13"/><path id="path18" style="fill:#757575;fill-opacity:1;fill-rule:nonzero;stroke:none" d="M 9297.09,4042.79 H 9036.84 L 8471.69,2689.2 h 115.49 l -563.61,1352.05 h -267.95 l 639.07,-1482.94 -50.81,-115.5 C 8286.9,2315 8179.1,2259.56 8075.93,2259.56 h -84.7 v -232.53 h 81.62 c 229.45,0 411.16,123.2 508.17,357.27 l 716.07,1658.49 z M 7617.03,2501.33 V 4041.25 H 7386.04 V 3865.7 c -129.35,129.36 -307.98,206.35 -511.25,206.35 -440.42,0 -786.9,-357.26 -786.9,-799.22 0,-443.5 346.48,-802.3 786.9,-802.3 203.27,0 381.9,78.54 511.25,206.35 v -175.55 h 230.99 z m -725.3,194.03 c -315.69,0 -571.31,258.71 -571.31,577.47 0,317.23 255.62,575.93 571.31,575.93 197.11,0 383.44,-92.39 478.91,-251 4.62,-9.24 15.4,-24.64 15.4,-50.82 v -546.67 c -1.54,-27.72 -10.78,-44.66 -16.94,-52.36 -103.17,-153.99 -280.26,-252.55 -477.37,-252.55 v 0 z M 4634.2,2039.35 v 637.53 c 129.35,-129.35 307.99,-207.89 511.25,-207.89 438.88,0 786.91,358.8 786.91,800.76 0,443.5 -348.03,802.3 -786.91,802.3 -203.26,0 -381.9,-78.53 -511.25,-206.35 v 175.55 h -230.99 v -2001.9 h 230.99 z m 494.32,654.47 c -197.11,0 -380.37,93.94 -478.92,251.01 -6.16,9.24 -15.4,24.64 -15.4,50.82 v 552.83 c 1.54,26.18 10.78,43.12 16.94,50.82 103.17,153.99 280.27,247.92 477.38,247.92 314.14,0 569.77,-258.7 569.77,-577.47 0,-317.22 -255.63,-575.93 -569.77,-575.93 v 0 0"/></g></g><head xmlns=""/></svg>