<?xml version="1.0" encoding="UTF-8" standalone="no"?>
<!-- Created with Inkscape (http://www.inkscape.org/) -->

<svg
   xmlns:dc="http://purl.org/dc/elements/1.1/"
   xmlns:cc="http://creativecommons.org/ns#"
   xmlns:rdf="http://www.w3.org/1999/02/22-rdf-syntax-ns#"
   xmlns:svg="http://www.w3.org/2000/svg"
   xmlns="http://www.w3.org/2000/svg"
   xmlns:sodipodi="http://sodipodi.sourceforge.net/DTD/sodipodi-0.dtd"
   xmlns:inkscape="http://www.inkscape.org/namespaces/inkscape"
   width="260.40039"
   height="79.516602"
   id="svg13251"
   version="1.1"
   inkscape:version="0.48.2 r9819"
   sodipodi:docname="New document 3">
  <defs
     id="defs13253" />
  <sodipodi:namedview
     id="base"
     pagecolor="#ffffff"
     bordercolor="#666666"
     borderopacity="1.0"
     inkscape:pageopacity="0.0"
     inkscape:pageshadow="2"
     inkscape:zoom="0.98994949"
     inkscape:cx="134.10889"
     inkscape:cy="32.528345"
     inkscape:document-units="px"
     inkscape:current-layer="layer1"
     showgrid="false"
     fit-margin-top="0"
     fit-margin-left="0"
     fit-margin-right="0"
     fit-margin-bottom="0"
     inkscape:window-width="477"
     inkscape:window-height="464"
     inkscape:window-x="132"
     inkscape:window-y="132"
     inkscape:window-maximized="0" />
  <metadata
     id="metadata13256">
    <rdf:RDF>
      <cc:Work
         rdf:about="">
        <dc:format>image/svg+xml</dc:format>
        <dc:type
           rdf:resource="http://purl.org/dc/dcmitype/StillImage" />
        <dc:title></dc:title>
      </cc:Work>
    </rdf:RDF>
  </metadata>
  <g
     inkscape:label="Layer 1"
     inkscape:groupmode="layer"
     id="layer1"
     transform="translate(-244.08552,-452.60388)">
    <path
       style="fill:#ee7500;fill-opacity:1;fill-rule:nonzero;stroke:none"
       d="m 369.60798,513.9613 c -0.37598,0 -0.68848,0.24903 -0.68848,0.56153 l 0,0.73242 c 0,0.31738 0.24414,0.38574 0.4541,0.38574 l 3.667,0 c 0.28808,0 0.44922,-0.13672 0.44922,-0.36133 l 0,-0.73242 c 0,-0.32715 -0.27344,-0.58594 -0.63477,-0.58594 l -3.24707,0 z m -0.21484,3.05176 c -0.2832,0 -0.47364,0.1416 -0.47364,0.36133 l 0,0.66895 c 0,0.23437 0.41504,0.56152 0.71289,0.56152 l 3.14454,0 c 0.41503,0 0.71288,-0.39551 0.71288,-0.56152 l 0,-0.64454 c 0,-0.20019 -0.0489,-0.38574 -0.4248,-0.38574 l -3.67187,0 z m 3.95507,2.93946 -4.25781,0 c -0.8789,0 -1.72851,-0.7959 -1.72851,-1.39649 l 0,-4.5166 c 0,-0.66895 0.64941,-1.26953 1.50879,-1.39648 0.20996,-0.0293 0.46875,-0.0293 0.708,-0.0293 0.36133,0 0.62988,-0.14649 0.8252,-0.45899 0.11225,-0.21972 0.2002,-0.4834 0.29297,-0.76172 0.11225,-0.33691 0.20019,-0.55664 0.51269,-0.70312 0.1025,-0.0488 0.21485,-0.0732 0.3418,-0.0732 0.26367,0 0.52246,0.11718 0.66406,0.29785 0.10738,0.13672 0.14649,0.3125 0.1025,0.47851 -0.0586,0.24414 -0.1025,0.35157 -0.20507,0.61524 l -0.11713,0.29785 c -0.0733,0.19531 -0.044,0.25391 -0.0341,0.25879 0.005,0.005 0.039,0.0488 0.24415,0.0488 l 0.99121,0 c 0.3662,0 0.78612,0.0244 1.09862,0.19043 0.3711,0.19531 0.75195,0.625 0.75195,1.13769 l 0,4.49707 c 0,0.69825 -0.92285,1.51368 -1.69921,1.51368 m -7.18261,9.17968 c -0.1025,0 -0.2002,-0.0146 -0.28809,-0.0488 -0.38086,-0.15625 -0.4541,-0.33203 -0.542,-0.94238 -0.0927,-0.64941 -0.44432,-3.4375 -0.46875,-3.74512 -0.0244,-0.30273 -0.044,-0.52246 0.1025,-0.72265 0.15625,-0.19043 0.41015,-0.30762 0.69335,-0.30762 0.0684,0 0.15138,0.0147 0.21485,0.0342 0.19043,0.0488 0.43456,0.2002 0.49805,0.63477 l 0.0879,0.82031 c 0.13671,1.08398 0.35643,2.87598 0.42968,3.36426 0.0489,0.34668 -0.0586,0.56152 -0.16601,0.66894 -0.12696,0.16114 -0.33204,0.24414 -0.56152,0.24414 m -6.21094,1.16211 c -0.0927,0 -0.18555,-0.01 -0.26856,-0.0391 -0.13672,-0.0342 -0.31738,-0.13672 -0.41504,-0.32714 -0.083,-0.15137 -0.0927,-0.32227 -0.039,-0.50293 0.1025,-0.29297 0.63476,-3.125 0.78125,-4.97071 l 0.0146,-0.13672 c 0.01,-0.12695 0.0244,-0.30273 0.039,-0.48828 0.039,-0.30273 0.3711,-0.53711 0.77149,-0.53711 0.0781,0 0.15625,0.0146 0.23925,0.0293 0.36621,0.083 0.56153,0.43457 0.4834,0.86914 -0.20507,1.85059 -0.74219,4.98536 -0.81054,5.30274 -0.0586,0.30273 -0.1025,0.53711 -0.3418,0.68359 -0.11225,0.0732 -0.27832,0.11719 -0.4541,0.11719 m 12.30469,1.22559 c -0.76661,0 -1.60645,-0.18067 -2.43165,-0.542 -0.38574,-0.12695 -0.64452,-0.39062 -0.71289,-0.68359 -0.0341,-0.20508 0.0244,-0.40039 0.19043,-0.54688 0.19531,-0.18066 0.39062,-0.26367 0.60547,-0.26367 0.12695,0 0.2539,0.0293 0.40528,0.0879 0.68359,0.3711 1.27441,0.53711 1.87987,0.53711 0.60059,-0.0147 0.92774,-0.2832 1.09375,-0.83496 0.2002,-0.58594 0.31739,-1.45996 0.33204,-2.59766 0,-0.33691 0,-0.52734 -0.0684,-0.68359 -0.0488,-0.13184 -0.25878,-0.25879 -0.59569,-0.25879 l -1.34766,0 c -0.22949,0 -0.45898,-0.083 -0.60546,-0.22949 -0.11713,-0.12208 -0.18067,-0.28809 -0.18067,-0.47363 0.005,-0.20508 0.1025,-0.67383 0.92774,-0.68848 0.16112,0 0.32714,0 0.51269,0 l 0.55663,0 0.70802,0 c 0.74707,0 1.34277,0.44434 1.58691,1.19629 0.13184,0.33203 0.1709,0.89355 0.11712,1.72363 -0.0489,0.93262 -0.20507,1.95313 -0.38573,2.49024 l -0.039,0.0977 c -0.14649,0.43945 -0.25392,0.78125 -0.65919,1.11816 -0.44921,0.36133 -1.10351,0.55176 -1.88964,0.55176 m -5.75684,0.15137 c -0.0927,0 -0.18555,-0.0146 -0.26856,-0.0488 -0.25879,-0.0781 -0.4248,-0.23438 -0.47362,-0.44434 -0.0684,-0.24902 0.0489,-0.54199 0.29785,-0.81055 0.48827,-0.48828 1.58691,-2.19726 2.06542,-3.44238 0.35156,-0.87402 0.62989,-1.72852 0.72266,-2.17773 0.0927,-0.47852 0.19532,-1.08887 0.20019,-1.39161 0.005,-0.0928 -0.0244,-0.17089 -0.083,-0.23925 -0.0781,-0.0781 -0.19531,-0.12208 -0.3418,-0.12208 -0.21484,0 -0.47851,0.005 -0.69824,0.005 l -0.36621,0.01 c -0.15625,0 -0.29785,-0.0488 -0.41016,-0.1416 -0.12695,0.13184 -0.3125,0.20508 -0.55175,0.20508 -0.13184,0 -0.24903,-0.0244 -0.34669,-0.0586 -0.26366,-0.10254 -0.32715,-0.30762 -0.41991,-0.58106 l -0.0684,-0.22461 c -0.11225,-0.33203 -0.24413,-0.43945 -0.55176,-0.43945 l -0.083,0 -0.62012,0.0586 c -0.20019,0.0293 -2.09962,0.25879 -2.4707,0.28809 -0.46387,0.0488 -1.02052,0.11718 -1.44532,0.16113 -0.2832,0.0342 -0.50292,0.0586 -0.60058,0.0635 l -0.1025,0.0146 c -0.0976,0.01 -0.21485,0.0244 -0.33692,0.0244 -0.18066,0 -0.32715,-0.0342 -0.44433,-0.0879 -0.16602,-0.083 -0.29298,-0.25391 -0.34668,-0.45411 -0.0586,-0.18554 -0.0293,-0.36132 0.0586,-0.49804 0.15625,-0.22461 0.35645,-0.3418 0.67382,-0.3711 0.29298,-0.0293 0.42969,-0.0488 0.625,-0.0586 0.13673,-0.01 0.20996,-0.0586 0.28809,-0.10742 0.50294,-0.57129 0.99121,-1.19141 1.50391,-1.90918 0.23925,-0.29297 0.21973,-0.55664 -0.039,-0.84961 -0.58594,-0.65918 -2.08496,-2.02637 -2.61231,-2.5 -0.36133,-0.32715 -0.41015,-0.625 -0.15136,-0.97168 0.12212,-0.15137 0.35645,-0.26367 0.59082,-0.26367 0.27344,0.0244 0.50293,0.1416 0.76171,0.36621 0.0489,0.0391 0.11713,0.0879 0.18067,0.0879 0.0733,0 0.15625,-0.083 0.24902,-0.22949 0.42969,-0.73242 1.21583,-2.38282 1.3916,-2.86133 0.18067,-0.49316 0.3418,-0.72266 0.81544,-0.78613 l 0.0195,0 c 0.23437,0 0.41016,0.0781 0.57617,0.20996 0.15625,0.16601 0.29297,0.45898 0.0684,1.01074 -0.24415,0.60059 -0.94728,1.94824 -1.74805,3.34961 -0.10738,0.18066 -0.2002,0.4541 0.20508,0.85449 l 0.49804,0.53711 c 0.12696,0.14648 0.22949,0.22461 0.3125,0.22461 0.0879,0 0.17578,-0.10743 0.22949,-0.2002 0.53711,-0.93261 1.10352,-2.12402 1.23535,-2.43652 l 0.0489,-0.0977 c 0.12695,-0.29785 0.24901,-0.58593 0.39062,-0.75195 0.12695,-0.16601 0.3125,-0.25391 0.5371,-0.25391 0.21485,0 0.41017,0.0879 0.50782,0.16114 0.17578,0.12695 0.3418,0.29785 0.20996,0.71777 -0.58594,1.70899 -2.11425,4.24805 -3.80371,6.32324 -0.0537,0.083 -0.0781,0.13184 -0.083,0.16114 l 0.005,0 c 0.0195,0 0.044,0 0.0879,0 0.039,0 0.0976,0 0.15136,-0.0146 l 2.31934,-0.25879 c 0.10738,-0.0195 0.2539,-0.0586 0.3125,-0.1416 0.039,-0.0635 0.039,-0.15137 0.0146,-0.27833 -0.13184,-0.44921 -0.30274,-1.12792 -0.36622,-1.43554 -0.0341,-0.18067 -0.005,-0.33692 0.0879,-0.46875 0.10737,-0.15137 0.29297,-0.24903 0.52735,-0.27832 0.039,0 0.0781,-0.005 0.11712,-0.005 0.33692,0 0.58594,0.1709 0.69824,0.46387 0.1416,0.38574 0.75684,2.66113 0.97168,3.46679 0.18555,-0.10254 0.35156,-0.12207 0.60058,-0.12207 0.67383,0.005 2.19726,0.005 2.19726,0.005 0.39552,0 0.45899,-0.1709 0.45899,-0.36133 l 0,-0.26855 c 0,-0.15625 0.0537,-0.65918 0.7666,-0.6836 0.55664,0 0.79101,0.3418 0.79101,0.6836 l 0,0.2539 c 0,0.19531 0.0538,0.37598 0.44923,0.37598 l 3.20312,0 c 0.20997,0 0.4541,0.12695 0.58594,0.32715 0.12695,0.18066 0.14649,0.37597 0.0781,0.57129 -0.14649,0.40038 -0.4541,0.48339 -0.92285,0.48339 l -4.3457,0 c -0.41505,0 -0.48829,0.18555 -0.50782,0.37598 0,0.005 -0.0684,0.51758 -0.13183,0.87402 -0.10738,0.625 -0.35157,1.53321 -0.47853,1.9043 -0.49804,1.51367 -1.22557,2.9834 -2.14842,4.36524 -0.4004,0.62011 -0.78125,1.14257 -1.31837,1.14257 m 8.95508,0.0488 c -0.30274,0 -0.54688,-0.13183 -0.67871,-0.38086 -0.12695,-0.36132 0.0733,-0.708 0.53711,-0.99121 0.45899,-0.31738 0.83496,-0.63476 1.09862,-0.9375 0.8545,-0.95214 1.55763,-1.958 2.08009,-2.98339 0.1709,-0.33692 0.20508,-0.64942 0.10738,-0.92774 -0.80078,-2.05078 -1.31835,-4.16992 -1.54785,-6.28906 0,-0.01 -0.005,-0.0244 -0.005,-0.0391 -0.005,0.01 -0.005,0.0147 -0.01,0.0195 -0.35644,0.77148 -0.625,1.33789 -0.8496,1.66992 -0.1709,0.23437 -0.38575,0.47852 -0.75197,0.47852 -0.0684,0 -0.1416,-0.01 -0.21483,-0.0293 -0.2002,-0.0488 -0.36133,-0.1709 -0.43945,-0.34668 -0.083,-0.21485 -0.0538,-0.47852 0.0927,-0.71778 l 0.0927,-0.14648 c 0.73242,-1.22071 1.22071,-2.02149 1.57227,-3.28614 0.41015,-1.46484 0.46875,-3.33984 0.45898,-4.6582 l -0.005,-0.27832 c -0.005,-0.2832 -0.0146,-0.49805 0.1025,-0.67871 0.12695,-0.20019 0.37108,-0.33203 0.6543,-0.33203 0.19531,0 0.37108,0.0635 0.49803,0.1709 0.22462,0.19043 0.24415,0.31738 0.23438,0.5664 -0.01,0.0928 -0.01,0.33204 -0.0146,0.60059 -0.01,0.41016 -0.0244,0.89844 -0.0293,1.08887 -0.0146,0.0781 0.0146,0.13672 0.0538,0.18066 0.0733,0.0781 0.20997,0.12208 0.39063,0.12208 l 4.18945,0 c 0.2539,0 0.49805,0.0928 0.6543,0.24902 0.11225,0.12207 0.17577,0.27832 0.16601,0.43457 -0.01,0.46387 -0.42969,0.67871 -0.81542,0.68359 -0.29787,0.01 -4.19434,0.01 -4.19434,0.01 -0.42969,0 -0.47853,0.18067 -0.47853,0.35645 l 0,1.54297 c -0.0293,2.46093 0.34669,4.80468 1.10353,6.97265 0.0195,0.0537 0.0341,0.0928 0.0489,0.12208 0.01,-0.0195 0.0195,-0.0391 0.0244,-0.0635 0.7666,-2.21192 1.2793,-4.12598 1.29395,-6.21094 0.005,-0.47851 -0.0146,-0.93262 -0.0146,-0.93262 0,-0.4541 0.2832,-0.72754 0.73243,-0.74218 0.47851,0 0.79589,0.28808 0.79589,0.708 0,0.33692 0,0.37598 -0.0195,0.6543 l -0.0489,0.7666 c -0.11712,1.84082 -0.78125,4.70215 -1.70899,7.29004 -0.20507,0.56153 -0.15136,0.65918 -0.01,0.92285 l 0.039,0.083 c 0.29297,0.53711 1.74804,2.94434 2.92969,4.10645 0.12213,0.12695 0.17578,0.27832 0.16601,0.43945 -0.0244,0.17578 -0.12695,0.3418 -0.29785,0.4541 -0.13183,0.083 -0.2832,0.13184 -0.4541,0.13184 -0.21485,0 -0.44922,-0.0781 -0.66406,-0.21485 -0.56152,-0.37597 -1.72852,-1.94336 -2.59766,-3.49609 -0.0976,-0.18066 -0.14649,-0.18555 -0.15625,-0.18555 0,0 -0.0586,0.005 -0.18066,0.19532 -0.29297,0.46875 -0.69824,1.03027 -1.22559,1.71386 -0.61524,0.85938 -1.79688,1.91895 -2.35351,2.08008 -0.12213,0.0391 -0.23438,0.0537 -0.35157,0.0537 m -12.17285,0.22461 c -0.50292,0 -0.81055,-0.29297 -0.81055,-0.79101 l 0,-8.27149 c 0,-0.34179 0.32227,-0.57617 0.78125,-0.58593 0.44434,0 0.77638,0.25878 0.77638,0.58593 l 0,8.27149 c 0,0.36133 -0.19044,0.79101 -0.74708,0.79101"
       id="path8857"
       inkscape:connector-curvature="0" />
    <path
       style="fill:#ee7500;fill-opacity:1;fill-rule:nonzero;stroke:none"
       d="m 401.74665,513.24841 c -0.42969,0 -0.48828,0.18067 -0.48828,0.35645 l 0,0.64453 c 0,0.2002 0.0586,0.38086 0.45411,0.38086 l 4.41893,0 c 0.40039,0 0.45411,-0.16602 0.45411,-0.35645 l 0,-0.66894 c 0,-0.18555 -0.0538,-0.35645 -0.45411,-0.35645 l -4.38476,0 z m 6.88476,0 c -0.4248,0 -0.48339,0.1709 -0.48339,0.35645 l 0,0.64453 c 0,0.2002 0.0538,0.38086 0.44922,0.38086 l 3.66699,0 c 0.42968,0 0.56641,-0.0147 0.6836,-0.0586 0.13671,-0.0488 0.20507,-0.0879 0.24413,-0.19043 0.0489,-0.0928 0.0489,-0.22949 0.044,-0.44433 l 0,-0.15137 c 0,-0.24902 -0.083,-0.43457 -0.21973,-0.4834 -0.17089,-0.0537 -0.37109,-0.0537 -0.75683,-0.0537 l -3.62794,0 z m -13.51562,2.64649 c -0.49805,0 -0.55664,0.005 -0.708,0.1709 -0.0733,0.0732 -0.0976,0.35644 -0.12212,0.60058 l -0.0195,0.20508 c -0.005,0.1123 0.01,0.19531 0.044,0.23926 0.0635,0.0684 0.19043,0.0781 0.28809,0.0781 l 4.05274,0 c 0.35156,0 0.58594,-0.13184 0.72265,-0.42481 0.0879,-0.17089 0.16114,-0.34179 0.20508,-0.50781 0.0195,-0.0781 0.0244,-0.20996 -0.0292,-0.27832 -0.0586,-0.0635 -0.18555,-0.083 -0.27833,-0.083 l -4.15527,0 z m 6.59669,0 c -0.33693,0 -0.53711,0.13183 -0.61524,0.41015 l -0.18066,0.58106 c -0.039,0.10742 -0.044,0.19531 -0.0195,0.22949 0.0195,0.0195 0.0781,0.0732 0.29785,0.0732 l 4.93652,0 c 0.40039,0 0.4541,-0.1709 0.4541,-0.36133 l 0,-0.57128 c 0,-0.19043 -0.0538,-0.36133 -0.4541,-0.36133 l -4.41893,0 z m -2.8418,3.72558 c 0.0244,0 0.0586,0 0.11225,0 l 7.14844,0 c 0.40038,0 0.4541,-0.17089 0.4541,-0.36132 l 0,-0.41504 c 0,-0.19043 -0.0538,-0.36621 -0.4541,-0.36621 l -5.58594,0 c -0.37109,0 -0.72265,0.16601 -1.04493,0.48339 l -0.37104,0.35157 c -0.18066,0.16601 -0.24413,0.25879 -0.27343,0.30761 l 0.0146,0 z m 9.76074,-1.14257 c -0.4248,0 -0.4834,0.17578 -0.4834,0.36621 l 0,0.39551 c 0,0.19531 0.0538,0.38085 0.44922,0.38085 l 1.95313,0 c 0.67382,0 1.22558,0.24903 1.63573,0.75196 0.0586,0.0586 0.0733,0.083 0.39063,0.18066 0.15625,0.0537 0.38086,0.083 0.60547,0.083 0.19043,0 0.38085,-0.0147 0.51758,-0.0586 0.23437,-0.10742 0.35645,-0.29785 0.42969,-0.68847 0.0684,-0.37598 0.15136,-0.87403 0.15136,-0.87403 0.0146,-0.24902 -0.0927,-0.41504 -0.32715,-0.50781 -0.044,-0.005 -0.19531,-0.0293 -0.70313,-0.0293 l -4.61913,0 z m 1.86035,10.88378 -11.23047,-0.005 -0.625,0 c -0.46387,0 -0.70801,-0.33691 -0.70801,-0.66894 0,-0.32715 0.24414,-0.6836 0.70801,-0.6836 l 11.44532,0 c 0.28808,0 0.53711,-0.0928 0.71288,-0.27343 0.19532,-0.19532 0.29785,-0.48828 0.28809,-0.83008 -0.005,-0.22461 -0.0927,-0.36621 -0.47851,-0.36621 l -11.96778,0 c -0.42481,0 -0.64453,-0.33692 -0.64453,-0.66406 0,-0.33204 0.22461,-0.6836 0.64453,-0.6836 l 11.96778,0 c 0.40039,0 0.4541,-0.17578 0.4541,-0.36621 l 0,-0.63476 c 0,-0.2002 -0.0489,-0.38575 -0.42481,-0.38575 l -11.99707,0 c -0.44433,0 -0.67871,-0.34179 -0.67871,-0.67871 0,-0.33691 0.23438,-0.67871 0.67871,-0.67871 l 11.96778,0 c 0.40039,0 0.4541,-0.16601 0.4541,-0.35644 0.0244,-0.33204 -0.0684,-0.62012 -0.26856,-0.83008 -0.17089,-0.18556 -0.40039,-0.2881 -0.65918,-0.2881 l -12.15332,0 c -0.33203,0.0293 -0.59082,0.19043 -0.7666,0.49317 -0.0684,0.15137 -0.0976,0.35644 -0.0879,0.59082 l 0.005,6.62598 c 0,0.39062 -0.39551,0.5957 -0.78614,0.5957 -0.19042,0 -0.36621,-0.0488 -0.50292,-0.13184 -0.17579,-0.1123 -0.26368,-0.26855 -0.26368,-0.46386 l 0,-6.87989 c 0,-0.18554 -0.0489,-0.18554 -0.11225,-0.18554 -0.0635,0 -0.15625,0.0293 -0.27832,0.0684 -1.04004,0.37109 -2.11914,0.65918 -2.5,0.65918 -0.44923,-0.0293 -0.7373,-0.27832 -0.73243,-0.61524 0,-0.4541 0.37598,-0.62012 1.01563,-0.7666 0.82031,-0.19043 2.93457,-0.79102 4.79492,-2.31445 0.0976,-0.0781 0.1416,-0.13672 0.16602,-0.16602 l -0.0195,0 c -0.0146,0 -0.039,0 -0.0635,0 l -3.71583,0 c -0.4248,0 -0.85937,-0.17578 -1.13281,-0.46387 -0.17579,-0.18066 -0.27344,-0.40527 -0.26368,-0.61523 0.0341,-0.47852 0.11225,-1.37207 0.16602,-1.77734 0.0684,-0.50293 0.65918,-0.99121 1.20117,-0.99121 l 5.1709,0 c 0.40528,0 0.45899,-0.16602 0.45899,-0.35645 l 0,-0.66895 c 0,-0.18554 -0.0538,-0.35644 -0.45899,-0.35644 l -5.66406,0 c -0.34685,0 -0.72772,-0.20997 -0.72772,-0.60059 0,-0.39063 0.30274,-0.66406 0.72754,-0.66406 l 5.66406,0 c 0.40528,0 0.45899,-0.1709 0.45899,-0.36133 -0.0489,-0.18555 -0.044,-0.60547 0.58105,-0.80567 0.083,-0.01 0.13184,-0.0146 0.17579,-0.0146 0.3125,0 0.55664,0.13672 0.72265,0.40039 0.0341,0.10254 0.0489,0.21973 0.0489,0.54688 0,0.0684 0,0.23437 0.45412,0.23437 l 4.41893,0 c 0.40039,0 0.4541,-0.17089 0.4541,-0.36132 -0.0244,-0.27344 0.0292,-0.49317 0.16114,-0.63965 0.13671,-0.14649 0.33203,-0.21485 0.58105,-0.21485 0.0927,0 0.18555,0.005 0.28809,0.0244 0.46387,0.19532 0.62989,0.53223 0.52735,0.97657 0.005,0.0439 0.005,0.21484 0.4541,0.21484 l 4.70702,0 c 0.58107,0 1.4795,0.5127 1.48927,1.28906 l 0.01,0.40039 c 0.01,0.31739 0.01,0.45899 -0.01,0.88868 -0.0244,0.63964 -0.66407,1.333 -1.65039,1.333 l -4.51173,0 c -0.4248,0 -0.4834,0.1709 -0.4834,0.36133 l 0,0.55664 c 0,0.19531 0.0537,0.37598 0.44923,0.37598 l 5.71777,0 c 0.83008,0 1.41113,0.55664 1.45019,1.38183 0.0146,0.80567 -0.25879,2.00196 -0.46386,2.42188 -0.19531,0.39551 -0.30274,0.55176 -0.56153,0.73242 -0.21972,0.16602 -0.68358,0.26856 -1.1914,0.26856 -0.16602,0 -0.32227,-0.005 -0.50293,-0.0293 -0.0293,-0.01 -0.0635,-0.01 -0.0976,-0.01 -0.23437,0 -0.33204,0.0977 -0.33204,0.32714 l 0,5.27833 c 0,0.57617 -0.23437,0.89843 -0.48827,1.1621 -0.28321,0.29297 -0.87891,0.63965 -1.63575,0.63965 m -17.43171,2.46581 c -0.49317,0 -0.81543,-0.19531 -0.87403,-0.54687 -0.044,-0.2002 0.0195,-0.40039 0.14649,-0.55176 0.1416,-0.18066 0.38086,-0.27832 0.65918,-0.2832 1.80665,-0.0342 4.62402,-0.54199 5.58106,-0.84473 0.13184,-0.0439 0.26366,-0.0635 0.3955,-0.0635 0.33691,0 0.60058,0.15137 0.71777,0.41992 0.0733,0.1709 0.0733,0.34668 0.01,0.50293 -0.0684,0.13672 -0.23437,0.33203 -0.63476,0.45899 -1.84081,0.54687 -5.18555,0.84472 -5.83984,0.89355 -0.0537,0.005 -0.10737,0.0146 -0.16113,0.0146 m 21.6748,0 c -0.11713,0 -0.25391,-0.0146 -0.41016,-0.0439 -0.25391,-0.0342 -1.31347,-0.19531 -2.48535,-0.36133 -1.56738,-0.22949 -3.34472,-0.48828 -3.63281,-0.54199 -0.27832,-0.0488 -0.48829,-0.21484 -0.56641,-0.44433 -0.0733,-0.23438 -0.0146,-0.48829 0.16114,-0.66895 0.15625,-0.16113 0.37597,-0.24414 0.66406,-0.24414 0.1709,0 0.35156,0.0342 0.54199,0.0635 0.20996,0.0439 1.46972,0.22949 2.69044,0.41016 1.28417,0.19043 2.61718,0.38574 2.97362,0.44921 0.41016,0.0684 0.66406,0.19532 0.78125,0.39063 0.0927,0.15137 0.1025,0.33203 0.0341,0.54199 -0.10249,0.29297 -0.35156,0.44922 -0.75196,0.44922"
       id="path8859"
       inkscape:connector-curvature="0" />
    <path
       style="fill:#ee7500;fill-opacity:1;fill-rule:nonzero;stroke:none"
       d="m 436.86384,519.21521 c -0.31739,0 -0.76172,-0.28808 -0.76172,-0.83008 l 0,-3.12011 c 0,-0.16114 -0.039,-0.3418 -0.43457,-0.3418 l -8.05663,0 c -0.36622,0 -0.50782,0.16601 -0.50782,0.61523 -0.0146,0.40528 -0.0244,1.99219 -0.0244,2.40723 0,0.62012 -0.29785,0.97656 -0.83008,0.97656 -0.46875,0 -0.75195,-0.36621 -0.75195,-0.97656 l 0,-2.58789 c 0,-1.15234 1.02539,-1.66992 2.03614,-1.66992 l 8.13476,0 c 0.22461,0 0.43456,-0.0537 0.43456,-0.50293 0,-0.43946 -0.20995,-0.49317 -0.43456,-0.49317 l -8.12012,0 c -0.37109,0 -0.7666,-0.23925 -0.7666,-0.63476 0,-0.39063 0.32715,-0.66406 0.80078,-0.66406 l 18.68653,0 c 0.35156,0 0.65429,0.29296 0.65429,0.63476 0,0.34668 -0.3125,0.66406 -0.65429,0.66406 l -8.11035,0 c -0.32228,0 -0.45411,0.13184 -0.45411,0.47364 0,0.45898 0.20996,0.52246 0.42968,0.52246 l 9.02344,0 c 0.95704,0 1.63086,0.63965 1.66993,1.59179 0.039,0.50293 -0.29785,1.66016 -0.49805,2.34375 l -0.0489,0.1709 c -0.13184,0.42969 -0.32715,0.85938 -0.83007,0.85938 -0.083,0 -0.16602,-0.01 -0.26368,-0.0342 -0.2832,-0.083 -0.45899,-0.26367 -0.50781,-0.53223 -0.0195,-0.2539 0.1416,-0.77637 0.3711,-1.49414 l 0.0489,-0.1709 c 0.0976,-0.3125 0.14649,-0.55664 0.16114,-0.75195 0.005,-0.21973 -0.0341,-0.37598 -0.13672,-0.5127 -0.14649,-0.15136 -0.35157,-0.23437 -0.64453,-0.23437 l -8.32031,0 c -0.39551,0 -0.45411,0.16601 -0.45411,0.3418 l 0,3.12011 c 0,0.57617 -0.41992,0.83008 -0.83984,0.83008 m 0.16601,10.63477 c -0.49805,0 -0.82519,-0.3125 -0.82519,-0.77149 l 0,-3.57422 c 0,-0.16601 -0.0292,-0.34668 -0.42481,-0.34668 l -9.30664,0 c -0.78125,0 -0.89843,-0.4248 -0.89843,-0.67382 0,-0.43457 0.3418,-0.69336 0.89843,-0.69336 l 20.66895,0 c 0.80078,0 0.96192,0.37109 0.96192,0.68359 0,0.25391 -0.12697,0.68359 -0.96192,0.68359 l -8.87207,0 c -0.4248,0 -0.45899,0.18067 -0.45899,0.34668 l 0,3.57422 c 0,0.47364 -0.30274,0.77149 -0.78125,0.77149 m -9.76562,0.0586 c -0.30274,0 -0.60059,-0.20508 -0.70313,-0.49805 -0.0781,-0.21484 -0.0292,-0.42481 0.13673,-0.56152 0.0976,-0.0879 0.2246,-0.16602 0.4541,-0.3125 l 0.43456,-0.26856 c 0.72755,-0.45898 1.27442,-0.86426 1.78224,-1.49414 0.23925,-0.29297 0.41503,-0.55664 0.5664,-0.7959 0.083,-0.12207 0.15136,-0.22949 0.22948,-0.32715 0.1025,-0.15136 0.28322,-0.23437 0.50782,-0.23437 0.25391,0 0.51758,0.10254 0.7129,0.26855 0.20996,0.17578 0.16112,0.52735 -0.12697,0.92286 -0.0341,0.0488 -0.0781,0.11718 -0.0586,0.16601 0.005,0.0342 0.0489,0.12208 0.28809,0.22949 0.83007,0.40039 2.24608,1.167 2.77831,1.49414 0.49317,0.30762 0.84474,0.52735 0.60059,0.98633 -0.1416,0.24903 -0.40528,0.41016 -0.708,0.41016 -0.20509,0 -0.41017,-0.0781 -0.59572,-0.22461 -0.85937,-0.52246 -1.83105,-1.07422 -2.87597,-1.6211 -0.16601,-0.0879 -0.26366,-0.13671 -0.34179,-0.13671 -0.0781,0 -0.18067,0.0635 -0.35645,0.21484 -1.05957,0.92773 -1.94336,1.55273 -2.49511,1.74805 -0.0733,0.0244 -0.14649,0.0342 -0.2295,0.0342 m 12.43164,0 c -0.34179,0 -0.61035,-0.24903 -0.708,-0.49805 -0.0781,-0.21484 -0.0292,-0.42481 0.13183,-0.56152 0.0976,-0.0879 0.22949,-0.16602 0.45898,-0.3125 l 0.43457,-0.26856 c 0.72754,-0.45898 1.27442,-0.86426 1.78223,-1.49414 0.23926,-0.29297 0.41504,-0.55664 0.56641,-0.7959 0.0781,-0.12207 0.15625,-0.22949 0.2246,-0.32715 0.11225,-0.15136 0.29298,-0.23437 0.51759,-0.23437 0.24902,0 0.50781,0.10254 0.70312,0.26855 0.20997,0.17578 0.17578,0.51758 -0.11712,0.92286 -0.0341,0.0488 -0.0781,0.11718 -0.0635,0.16601 0.005,0.0342 0.0538,0.12208 0.28807,0.22949 0.82032,0.40039 2.26563,1.18164 2.77344,1.49414 0.49805,0.30762 0.85938,0.52735 0.60548,0.98633 -0.13184,0.24903 -0.41017,0.41016 -0.70802,0.41016 -0.20018,0 -0.40527,-0.0781 -0.5957,-0.22461 -0.87402,-0.52735 -1.85058,-1.0791 -2.87597,-1.6211 -0.16601,-0.0879 -0.26368,-0.13671 -0.3418,-0.13671 -0.0733,0 -0.18555,0.0635 -0.34668,0.21484 -0.75683,0.65918 -1.80663,1.49414 -2.50976,1.74805 -0.0684,0.0244 -0.14649,0.0342 -0.21974,0.0342"
       id="path8861"
       inkscape:connector-curvature="0" />
    <path
       style="fill:#ee7500;fill-opacity:1;fill-rule:nonzero;stroke:none"
       d="m 448.45564,531.55896 -23.06153,0 c -0.40527,0 -0.74218,-0.30762 -0.74218,-0.67871 0,-0.38086 0.33691,-0.67871 0.74218,-0.67871 l 23.06153,0 c 0.41504,0 0.74219,0.29785 0.74219,0.67871 0,0.37109 -0.32715,0.67871 -0.74219,0.67871"
       id="path8863"
       inkscape:connector-curvature="0" />
    <path
       style="fill:#ee7500;fill-opacity:1;fill-rule:nonzero;stroke:none"
       d="m 445.33064,516.92029 -5.69336,0 c -0.3711,0 -0.67383,-0.27832 -0.67383,-0.62988 0,-0.34668 0.30273,-0.625 0.67383,-0.625 l 5.69336,0 c 0.36621,0 0.66894,0.27832 0.66894,0.625 0,0.35156 -0.30273,0.62988 -0.66894,0.62988"
       id="path8865"
       inkscape:connector-curvature="0" />
    <path
       style="fill:#ee7500;fill-opacity:1;fill-rule:nonzero;stroke:none"
       d="m 445.33064,518.85877 -5.69336,0 c -0.3711,0 -0.67383,-0.28321 -0.67383,-0.63477 0,-0.3418 0.30273,-0.62988 0.67383,-0.62988 l 5.69336,0 c 0.36621,0 0.66894,0.28808 0.66894,0.62988 0,0.35156 -0.30273,0.63477 -0.66894,0.63477"
       id="path8867"
       inkscape:connector-curvature="0" />
    <path
       style="fill:#ee7500;fill-opacity:1;fill-rule:nonzero;stroke:none"
       d="m 434.22224,516.92029 -5.46875,0 c -0.36621,0 -0.67383,-0.27832 -0.67383,-0.62988 0,-0.34668 0.30762,-0.625 0.67383,-0.625 l 5.46875,0 c 0.36621,0 0.66894,0.27832 0.66894,0.625 0,0.35156 -0.30273,0.62988 -0.66894,0.62988"
       id="path8869"
       inkscape:connector-curvature="0" />
    <path
       style="fill:#ee7500;fill-opacity:1;fill-rule:nonzero;stroke:none"
       d="m 434.22224,518.85877 -5.46388,0 c -0.37108,0 -0.6787,-0.28321 -0.6787,-0.63477 0,-0.3418 0.30762,-0.62988 0.6787,-0.62988 l 5.46388,0 c 0.36621,0 0.66894,0.28808 0.66894,0.62988 0,0.35156 -0.30273,0.63477 -0.66894,0.63477"
       id="path8871"
       inkscape:connector-curvature="0" />
    <path
       style="fill:#ee7500;fill-opacity:1;fill-rule:nonzero;stroke:none"
       d="m 443.33845,522.73084 c -0.57617,0 -1.04981,-0.46875 -1.04981,-1.04981 0,-0.57617 0.47364,-1.0498 1.04981,-1.0498 0.58105,0 1.0498,0.47363 1.0498,1.0498 0,0.58106 -0.46875,1.04981 -1.0498,1.04981 m -5.78614,-0.48829 c -0.58105,0 -1.04003,-0.46875 -1.04003,-1.0498 0,-0.57617 0.45898,-1.04492 1.04003,-1.04492 0.58106,0 1.05958,0.46875 1.05958,1.04492 0,0.58105 -0.47853,1.0498 -1.05958,1.0498 m -7.20702,0.48829 c -0.58106,0 -1.04493,-0.46875 -1.04493,-1.04981 0,-0.57617 0.46387,-1.0498 1.04493,-1.0498 0.58105,0 1.0498,0.47363 1.0498,1.0498 0,0.58106 -0.46875,1.04981 -1.0498,1.04981 m 14.76074,-3.07129 -2.10938,0 c -0.85937,0 -1.58691,0.43457 -1.87988,1.04492 -0.1025,0.17578 -0.23925,0.26855 -0.69335,0.26855 -0.44434,0 -0.55665,-0.0977 -0.6543,-0.30273 0,0 0,0.005 0,0.005 -0.29785,-0.59082 -1.02539,-1.01563 -1.875,-1.01563 l -2.09962,0 c -0.85937,0 -1.5918,0.42969 -1.87988,1.03516 -0.10738,0.18066 -0.23438,0.27832 -0.70313,0.27832 -0.44921,0 -0.55175,-0.0977 -0.65429,-0.30273 l 0,0.005 c -0.29297,-0.59082 -1.02051,-1.01563 -1.875,-1.01563 l -2.09961,0 c -1.11329,0 -2.02149,0.72266 -2.02149,1.60645 l 0,0.34668 c 0,0.88867 0.9082,1.60644 2.02149,1.60644 l 2.09961,0 c 0.83984,0 1.56738,-0.41504 1.86523,-1.00097 0.0928,-0.19532 0.22461,-0.29297 0.69336,-0.29297 0.46875,0 0.58594,0.0977 0.68848,0.30273 l 0,-0.01 c 0.29785,0.58594 1.0254,1.00098 1.86523,1.00098 l 2.09962,0 c 0.84472,0 1.56737,-0.41993 1.87011,-1.01074 0.0879,-0.18555 0.2295,-0.28321 0.6836,-0.28321 0.46875,0 0.58594,0.0977 0.68847,0.30274 l 0,-0.01 c 0.29785,0.58593 1.0205,1.00097 1.86035,1.00097 l 2.10938,0 c 1.11327,0 2.0166,-0.71777 2.0166,-1.60644 l 0,-0.34668 c 0,-0.88379 -0.90333,-1.60645 -2.0166,-1.60645"
       id="path8873"
       inkscape:connector-curvature="0" />
    <path
       style="fill:#7fa60a;fill-opacity:1;fill-rule:nonzero;stroke:none"
       d="m 333.44099,495.36267 0,-25.65429 c 0.005,-2.35352 1.91895,-4.26758 4.27734,-4.27735 l 32.06543,0 c 2.36328,0.01 4.27734,1.92383 4.28223,4.27735 l 0,21.38183 c -0.005,2.3584 -1.91895,4.27246 -4.28223,4.27246 l -36.34277,0 z m 164.62402,-42.75879 -85.51758,0 c -9.44824,0.005 -17.0996,7.66113 -17.0996,17.1045 0,9.45312 7.65136,17.0996 17.0996,17.10449 l 32.07031,0 c 2.3584,0.005 4.26759,1.91894 4.27735,4.27734 -0.01,2.3584 -1.91895,4.27246 -4.27735,4.27246 l -58.28612,0 c 0.34667,-1.36719 0.55663,-2.79297 0.55663,-4.27246 l 0,-21.38183 c 0,-9.44337 -7.65136,-17.09962 -17.10448,-17.1045 l -32.06544,0 c -9.45312,0.005 -17.10449,7.66113 -17.10937,17.1045 l 0,25.65429 -10.80567,0 c 0.35156,-1.36719 0.55664,-2.79297 0.55664,-4.27246 l 0,-21.38183 c 0,-9.44337 -7.65136,-17.09962 -17.09961,-17.1045 l -32.07031,0 c -9.44336,0.005 -17.09961,7.66113 -17.10449,17.1045 l 0,55.99609 c 0,3.54492 2.87598,6.41601 6.41113,6.41601 3.54981,0 6.41602,-2.87109 6.41602,-6.41601 l 0,0 0,-55.99609 c 0.01,-2.35352 1.92383,-4.26758 4.27734,-4.27735 l 32.07031,0 c 2.35352,0.01 4.27246,1.92383 4.27735,4.27735 l 0,21.38183 c -0.005,2.3584 -1.92383,4.27246 -4.27735,4.27246 l -21.38183,0 c -3.54004,0 -6.41114,2.87598 -6.41114,6.41602 0,3.54004 2.8711,6.41601 6.41114,6.41601 l 48.73047,0 0,17.50977 c 0,3.54492 2.87597,6.41601 6.42089,6.41601 3.53516,0 6.41114,-2.87109 6.41114,-6.41601 l 0,-17.50977 111.17675,0 c 9.44336,-0.01 17.09961,-7.65625 17.1045,-17.10449 -0.005,-9.44824 -7.66114,-17.09961 -17.1045,-17.10449 l -32.07031,0 c -2.36328,0 -4.27245,-1.91895 -4.27245,-4.27734 0,-2.35352 1.90917,-4.26758 4.27245,-4.27735 l 85.51758,0 c 3.54492,0 6.4209,-2.86621 6.4209,-6.41602 0,-3.53515 -2.87598,-6.41113 -6.4209,-6.41113"
       id="path8875"
       inkscape:connector-curvature="0" />
    <path
       style="fill:#abcc02;fill-opacity:1;fill-rule:nonzero;stroke:none"
       d="m 280.42829,501.78357 c 0,3.53027 2.86621,6.39648 6.39649,6.41113 l 6.43554,0 c 7.96875,-0.01 14.66797,-5.44922 16.5625,-12.83203 l -22.98828,0 c -3.53515,0.01 -6.40625,2.87598 -6.40625,6.4209 m 67.97853,-6.4209 c -3.54005,0 -6.41603,2.87598 -6.41603,6.41602 0,3.53515 2.85645,6.39648 6.3916,6.41601 l 21.40137,0 c 7.97852,-0.01 14.66797,-5.44922 16.56738,-12.83203 l -37.94433,0 z m -27.79786,12.83203 12.83203,0 0,-12.83203 -12.83203,0 0,12.83203 z m 0,0"
       id="path8877"
       inkscape:connector-curvature="0" />
  </g>
</svg>
